# xmcd
#
# Track frame offsets: 
#        150
#        13075
#        27808
#        49500
#        63170
#        77463
#        91905
#        103518
#        118755
#        132575
#        144630
#        158835
#        170400
#        181770
#        194180
#        213663
#        227140
#        249665
#
# Disc length: 3511 seconds
#
# Revision: 4
# Processed by: cddbd v1.5.2PL0 Copyright (c) Steve Scherf et al.
# Submitted via: ExactAudioCopy v0.99pb4
#
DISCID=f60db512
DTITLE=Various Artist - Legends Of Guitar: Electric Blues Volume 2
DYEAR=1900
DGENRE=Blues
TTITLE0=Rufus Thomas - Bear Cat
TTITLE1=B.B. King - Just Like A Woman
TTITLE2=The Electric Flag - Texas
TTITLE3=John Mayhall - Another Kinda Love
TTITLE4=John Lee Hooker - Boogie Chillen
TTITLE5=Magic Sam - Lookin Good
TTITLE6=Little Milton Cambell - Carry My Business On
TTITLE7=Freddie King - Going Down
TTITLE8=John Mayall's Bluesbreakers - Double Crossing Time
TTITLE9=Muddy Waters - Long Distance Call
TTITLE10=Lowell Fulson - Reconsider Baby
TTITLE11=Clarence "Gatemouth" Brown - Okie Dokie Stomp
TTITLE12=Frankie Lee Sims - Lucy Mae Blues
TTITLE13=Snooks Eaglin - Play Girl
TTITLE14=James Cotton - Fallin Rain
TTITLE15=Howlin' Wolf - Worried About My Baby
TTITLE16=Junior Wells - Viet Cong Blues
TTITLE17=Albert Collins - Frosty
EXTD=
EXTT0=
EXTT1=
EXTT2=
EXTT3=
EXTT4=
EXTT5=
EXTT6=
EXTT7=
EXTT8=
EXTT9=
EXTT10=
EXTT11=
EXTT12=
EXTT13=
EXTT14=
EXTT15=
EXTT16=
EXTT17=
PLAYORDER=
